<svg version="1.1" id="Layer_1" xmlns="http://www.w3.org/2000/svg" xmlns:xlink="http://www.w3.org/1999/xlink" x="0px" y="0px"
	 width="100%" viewBox="0 0 512 512" enable-background="new 0 0 512 512" xml:space="preserve">
<path fill="#000000" opacity="1.000000" stroke="none" 
	d="
M290.224243,106.156616 
	C294.915619,105.658020 298.453705,103.000648 302.315643,101.136185 
	C330.660126,87.452072 361.324890,106.516251 361.347229,137.913818 
	C361.356964,151.577209 361.547089,165.244980 361.243774,178.901611 
	C361.137817,183.673355 362.809479,184.821777 367.283142,184.743790 
	C381.108887,184.502747 394.941650,184.640732 408.771606,184.670380 
	C440.285126,184.737946 465.215973,209.603363 465.337585,241.116287 
	C465.392212,255.279358 465.440552,269.443787 465.286316,283.605377 
	C465.248352,287.090271 466.251801,288.331604 469.888550,288.983215 
	C492.874481,293.102020 505.342102,308.400024 505.348785,331.936615 
	C505.351318,340.767822 505.352142,349.599060 505.349670,358.430267 
	C505.343231,381.466461 492.636627,397.011780 469.997437,400.984375 
	C465.961670,401.692566 465.261749,403.272858 465.295715,406.786163 
	C465.430908,420.781494 465.370880,434.778931 465.343628,448.775543 
	C465.282440,480.222321 440.372620,505.309174 408.869720,505.325989 
	C294.230591,505.387207 179.591400,505.381866 64.952271,505.315033 
	C33.779499,505.296844 8.697928,480.154053 8.679497,449.092712 
	C8.638366,379.776031 8.637172,310.459259 8.676484,241.142593 
	C8.694201,209.906708 33.502747,184.899078 64.678856,184.735535 
	C68.285706,184.716599 71.001572,183.622330 73.647644,181.297668 
	C116.825569,143.363953 160.052017,105.485481 203.269684,67.596992 
	C209.532791,62.106194 215.740128,56.549255 222.089905,51.160374 
	C235.430405,39.838699 250.352264,37.155804 266.209442,44.731071 
	C281.845184,52.200558 288.921448,65.477982 289.372284,82.584145 
	C289.577637,90.376335 288.626831,98.196381 290.224243,106.156616 
M229.500122,201.344940 
	C175.004669,201.347122 120.509201,201.332458 66.013763,201.359375 
	C42.696880,201.370895 25.359894,218.805450 25.354992,242.215714 
	C25.340614,310.877380 25.337345,379.539032 25.356855,448.200714 
	C25.363350,471.056763 43.016529,488.639709 65.979996,488.643066 
	C180.138351,488.659760 294.296722,488.660736 408.455078,488.641663 
	C430.690979,488.637939 448.569519,470.864014 448.647308,448.746033 
	C448.695984,434.913879 448.489532,421.078278 448.750336,407.250854 
	C448.836334,402.690430 447.527344,401.227936 442.846863,401.264771 
	C417.517090,401.464081 392.181152,401.590485 366.854614,401.230286 
	C351.918243,401.017883 340.552277,394.178253 334.654205,380.065826 
	C326.380524,360.269348 326.834351,339.686768 331.389435,319.291901 
	C336.128784,298.072021 348.968994,288.665314 370.821777,288.655701 
	C394.820038,288.645142 418.819183,288.541138 442.815735,288.742065 
	C447.484894,288.781189 448.837433,287.256958 448.751251,282.706940 
	C448.498810,269.379364 448.663818,256.043945 448.661316,242.711578 
	C448.656769,218.664108 431.448456,201.355133 407.487244,201.349777 
	C348.491547,201.336609 289.495850,201.345474 229.500122,201.344940 
M268.440674,68.109123 
	C258.880035,55.646816 244.639160,53.842056 233.240005,63.735870 
	C224.945419,70.935089 216.760574,78.260574 208.499222,85.498268 
	C177.197678,112.921204 145.882492,140.328537 114.578484,167.748642 
	C108.642982,172.947723 102.735191,178.178436 95.840408,184.252869 
	C98.787842,184.446381 100.380081,184.636261 101.972923,184.641403 
	C111.131523,184.671036 120.292236,184.547043 129.447952,184.712204 
	C133.057419,184.777328 136.300461,184.048355 139.506897,182.444138 
	C182.533539,160.917664 225.571228,139.413086 268.653198,117.997696 
	C271.592010,116.536850 272.782166,114.732040 272.722473,111.435310 
	C272.544556,101.613770 272.700256,91.786682 272.641693,81.962265 
	C272.613434,77.220299 271.432159,72.758385 268.440674,68.109123 
M479.718353,379.257202 
	C485.894012,374.128632 488.734192,367.519318 488.674500,359.527313 
	C488.603516,350.029602 488.672241,340.530884 488.660309,331.032623 
	C488.640594,315.314789 478.755310,305.365021 463.110199,305.357422 
	C432.115845,305.342285 401.121490,305.347626 370.127136,305.357819 
	C357.056824,305.362122 350.027496,311.060822 347.376160,323.786163 
	C344.699646,336.632324 344.400940,349.590973 346.611389,362.474091 
	C349.007629,376.440155 354.196381,385.149506 372.807861,384.803772 
	C402.958649,384.243713 433.127502,384.611908 463.288513,384.684387 
	C469.170166,384.698517 474.466278,383.281036 479.718353,379.257202 
M231.695328,155.234726 
	C212.808609,164.676834 193.921875,174.118927 175.035156,183.561035 
	C176.174454,184.472458 176.985229,184.587708 177.796051,184.588089 
	C231.901123,184.614059 286.006256,184.602020 340.111145,184.706558 
	C344.142426,184.714355 344.722260,182.754517 344.699493,179.429703 
	C344.602509,165.279694 344.642822,151.128616 344.670319,136.977997 
	C344.676575,133.755707 343.935059,130.707642 342.706665,127.780235 
	C337.209625,114.680344 322.694824,109.926414 308.771484,116.824036 
	C283.271790,129.456543 257.831207,142.208359 231.695328,155.234726 
z"/>
<path fill="#000000" opacity="1.000000" stroke="none" 
	d="
M468.143005,20.893660 
	C479.498108,36.128517 490.637146,51.080986 501.770813,66.037407 
	C505.444122,70.971931 506.606781,76.246010 503.537476,81.882896 
	C500.614716,87.250595 495.864441,89.481018 489.872986,89.349182 
	C488.541321,89.319878 487.192413,89.481842 485.879120,89.324631 
	C482.235321,88.888435 480.757294,90.691788 480.404266,94.089378 
	C478.121857,116.055992 469.702057,135.487274 455.805695,152.540619 
	C448.833557,161.096695 440.703156,168.448410 431.596832,174.751190 
	C426.988861,177.940521 422.861298,178.012787 418.376251,174.574661 
	C408.599976,167.080383 398.639343,159.826706 388.858704,152.337982 
	C382.911316,147.784241 383.204041,141.224564 389.656433,137.228653 
	C396.507019,132.986130 402.995483,128.441208 407.774078,121.800285 
	C413.761078,113.480042 417.066162,104.244728 417.676697,93.997910 
	C417.879669,90.590858 416.739166,88.995903 413.158142,89.342972 
	C411.179260,89.534760 409.164520,89.334709 407.166290,89.351959 
	C401.478241,89.401054 397.224884,86.928383 394.494873,81.979118 
	C391.759186,77.019554 391.769714,71.814400 395.053619,67.326820 
	C407.830444,49.866894 420.588715,32.379349 433.917542,15.343078 
	C441.134277,6.118997 456.102051,6.590557 463.985779,15.455224 
	C465.419373,17.067192 466.617828,18.888275 468.143005,20.893660 
M478.106476,62.363289 
	C469.850128,51.283558 461.635864,40.172062 453.317902,29.138800 
	C449.686768,24.322323 447.912109,24.423141 444.260712,29.305050 
	C438.777740,36.635780 433.276917,43.953400 427.836884,51.315899 
	C422.938629,57.945061 418.112000,64.627129 412.824432,71.874321 
	C417.277405,73.145782 420.922150,72.490623 424.484985,72.665054 
	C429.316742,72.901596 432.397675,75.405396 433.199493,80.064743 
	C436.830688,101.165901 431.775360,119.987473 417.769257,136.235321 
	C414.990997,139.458267 411.618622,142.169052 408.393799,145.236221 
	C412.174744,149.560455 416.796936,151.739120 420.461914,155.072144 
	C423.700867,158.017731 426.414124,157.907761 429.932159,154.880264 
	C452.135040,135.773346 463.563141,111.613373 464.650085,82.453354 
	C464.895752,75.863678 467.915131,72.892349 474.554138,72.627045 
	C477.763336,72.498795 481.104248,73.362068 484.362915,71.848160 
	C483.210815,68.134979 480.293549,65.911140 478.106476,62.363289 
z"/>
<path fill="#000000" opacity="1.000000" stroke="none" 
	d="
M361.689789,337.137878 
	C366.699677,321.612915 377.960754,312.788605 392.439880,312.668335 
	C406.723694,312.549652 418.793304,320.941254 423.455048,334.231995 
	C427.970428,347.105316 424.003082,361.619720 413.712952,369.872803 
	C402.543793,378.830902 387.657227,379.860352 375.991638,372.481506 
	C364.031158,364.916138 358.385498,351.183258 361.689789,337.137878 
M407.812408,349.215485 
	C409.858734,341.397919 406.308929,333.913818 399.071869,330.787659 
	C392.250854,327.841187 384.208344,330.202118 380.197937,336.328186 
	C375.682800,343.225342 376.738068,351.139496 382.890015,356.518433 
	C391.417328,363.974152 402.348450,361.076965 407.812408,349.215485 
z"/>
</svg>